<svg width="158" height="44" viewBox="0 0 158 44" fill="none" xmlns="http://www.w3.org/2000/svg">
<path d="M0 1H34C37.3137 1 40 3.68629 40 7V37C40 40.3137 37.3137 43 34 43H6C2.68629 43 0 40.3137 0 37V1Z" fill="#0051FF"/>
<path d="M22.0509 9L25 14.1762C19.7834 16.2907 18.6242 19.9765 18.6966 21.5551H25V34H12.1759C12.1034 32.5683 11.8933 28.0969 12.0672 21.2247C12.2411 14.3524 18.8317 10.1747 22.0509 9Z" fill="white"/>
<path d="M49.616 19H45.848V1.24H49.616L54.896 14.488L60.2 1.24H64.016V19H60.248V15.28C60.248 11.44 60.248 10.6 60.44 9.28L56.672 19H53.12L49.376 9.28C49.592 10.6 49.616 12.088 49.616 14.032V19ZM70.1392 19H66.0832L72.4192 1.24H76.2112L82.5232 19H78.3952L77.1472 15.256H71.4112L70.1392 19ZM73.8112 8.2L72.5392 11.992H76.0432L74.7712 8.2C74.5792 7.6 74.3632 6.904 74.2912 6.472C74.2192 6.88 74.0272 7.552 73.8112 8.2ZM88.4782 19H84.5902V1.24H91.4542C95.7742 1.24 98.2222 3.328 98.2222 7C98.2222 9.304 97.2382 10.936 95.2702 11.944L98.3902 19H94.1422L91.4782 12.784H88.4782V19ZM88.4782 4.696V9.376H91.4302C93.1342 9.376 94.1182 8.512 94.1182 7C94.1182 5.512 93.1822 4.696 91.4542 4.696H88.4782ZM105.002 1.24V9.736L111.41 1.24H115.994L110.186 8.824L116.042 19H111.554L107.642 12.136L105.002 15.592V19H101.114V1.24H105.002ZM133.35 10.096C133.35 15.52 129.774 19.288 124.614 19.288C119.478 19.288 115.95 15.544 115.95 10.12C115.95 4.696 119.502 0.927999 124.638 0.927999C129.798 0.927999 133.35 4.672 133.35 10.096ZM129.246 10.096C129.246 6.712 127.518 4.672 124.662 4.672C121.782 4.672 120.054 6.712 120.054 10.096C120.054 13.504 121.782 15.544 124.662 15.544C127.518 15.544 129.246 13.456 129.246 10.096ZM139.827 19H136.059V1.24H139.827L145.107 14.488L150.411 1.24H154.227V19H150.459V15.28C150.459 11.44 150.459 10.6 150.651 9.28L146.883 19H143.331L139.587 9.28C139.803 10.6 139.827 12.088 139.827 14.032V19ZM47.816 25.816V41.416H55.712V43H46.088V25.816H47.816ZM58.7677 43H57.0157L63.3277 25.816H65.4637L71.8477 43H70.0477L68.3677 38.44H60.4477L58.7677 43ZM64.1677 28.24L60.9757 36.928H67.8157L64.5997 28.24C64.5277 28 64.4077 27.712 64.3837 27.544C64.3597 27.688 64.2637 28 64.1677 28.24ZM74.2364 43V25.816H80.5244C83.8364 25.816 85.8764 27.496 85.8764 30.256C85.8764 32.272 84.9884 33.64 83.2124 34.336C85.2044 34.984 86.2124 36.376 86.2124 38.488C86.2124 41.248 84.1484 43 80.8844 43H74.2364ZM80.5004 27.352H75.9644V33.64H80.7164C82.8764 33.64 84.1004 32.44 84.1004 30.4C84.1004 28.48 82.8044 27.352 80.5004 27.352ZM80.8844 35.152H75.9644V41.44H80.8844C83.1404 41.44 84.4604 40.264 84.4604 38.272C84.4604 36.328 83.1164 35.152 80.8844 35.152ZM88.2982 30.28C88.2982 27.4 90.6022 25.504 94.0582 25.504C97.1542 25.504 99.1942 27.232 99.4582 30.112H97.7062C97.5142 28.168 96.1942 27.064 94.0342 27.064C91.6102 27.064 90.0262 28.312 90.0262 30.256C90.0262 31.768 90.9142 32.728 92.7142 33.184L95.6662 33.904C98.3542 34.552 99.7462 36.088 99.7462 38.416C99.7462 41.392 97.4422 43.288 93.8902 43.288C90.5542 43.288 88.2982 41.536 88.0822 38.728H89.8582C89.9542 40.528 91.5382 41.704 93.8902 41.704C96.4102 41.704 98.0182 40.48 98.0182 38.512C98.0182 36.976 97.1542 35.968 95.3062 35.536L92.4022 34.816C89.7142 34.168 88.2982 32.632 88.2982 30.28Z" fill="#0051FF"/>
</svg>
